# xmcd
#
# Track frame offsets:
#	150
#	21030
#	43044
#	66169
#	86773
#	107388
#	133021
#	160203
#	180404
#	201559
#	226840
#	249363
#
# Disc length: 3601 seconds
#
# Revision: 3818495506
# Processed by: cddbd v1.5.2PL0 Copyright (c) Steve Scherf et al.
# Submitted via: EZCDAudioConverter 8.0.2.1
#
DISCID=980e0f0c
DTITLE=Various Artist - Mưa Phi Trường
DYEAR=2000
DGENRE=
TTITLE0=Hạ Vy, Johnny Dũng - Mưa Phi Trường
TTITLE1=Huy Tâm - Khoảnh khắc
TTITLE2=Diễm Liên - Trống vắng
TTITLE3=Huy Vũ - Tình đơn phương
TTITLE4=Tú Quyên - Trái tim thổn thức
TTITLE5=Henry Chúc - LK Còn lại nỗi cô đơn
TTITLE6=V.A - Vào hạ and Shaylala
TTITLE7=Johnny Dũng - Kiếp phiêu bồng
TTITLE8=Hà Vy - Nhớ anh chiều mưa
TTITLE9=Minh Tuyết, Johnny Dũng - Một thời đã xa
TTITLE10=Minh Tuyết - Quán vắng một mình
TTITLE11=Soundtrack - Mưa Phi Trường
EXTD=
EXTT0=
EXTT1=
EXTT2=
EXTT3=
EXTT4=
EXTT5=
EXTT6=
EXTT7=
EXTT8=
EXTT9=
EXTT10=
EXTT11=
PLAYORDER=
